# xmcd
#
# Track frame offsets:
#	150
#	21157
#	33019
#	48479
#	66794
#	82356
#	91557
#	109401
#	121724
#	134719
#	152599
#	167395
#	185367
#	206540
#	220802
#	237743
#	256341
#	266798
#	284659
#
# Disc length: 4023 seconds
#
# Revision: 1
# Processed by: cddbd v1.5.2PL0 Copyright (c) Steve Scherf et al.
# Submitted via: audiograbber 1.82.02
#
DISCID=140fb513
DTITLE=Various Artist - Rural Aid Appeal 2007 Vol 39
DYEAR=2007
DGENRE=Country
TTITLE0=Troy Cassar Daley - Fisherman
TTITLE1=Beccy Cole - A Better Women
TTITLE2=Adam Harvey - Missing Heros
TTITLE3=James Blundell - Higher Than Heaven
TTITLE4=Topp Twins - Local Farmhand
TTITLE5=Pixie Jenkins - Big Balls In Cow Town
TTITLE6=Klancie Keough - Let's Get This Day Over With
TTITLE7=Nik Phillips - Ain't Got Nothing
TTITLE8=Wildseed - The Fire
TTITLE9=Andy Baylor - Hometown Stomp
TTITLE10=Paul Hicks - Buffalo River Road
TTITLE11=Jeanette Wormald - Opel Blue
TTITLE12=Laura Downing - Harold Clifford Young
TTITLE13=Tracey Bunn - The Sucking Cowgirls Girl So Free
TTITLE14=Rose Carleo - Till I Find Me Again
TTITLE15=Michael Muchow - Your Fool
TTITLE16=Marco Glior - Country Music Racecell
TTITLE17=Sera  Jane Moore - In My Town
TTITLE18=Ronni Ray Rivers - Good Guys Finish Last
EXTD=
EXTT0=
EXTT1=
EXTT2=
EXTT3=
EXTT4=
EXTT5=
EXTT6=
EXTT7=
EXTT8=
EXTT9=
EXTT10=
EXTT11=
EXTT12=
EXTT13=
EXTT14=
EXTT15=
EXTT16=
EXTT17=
EXTT18=
PLAYORDER=
